<svg width="81" height="81" viewBox="0 0 81 81" fill="none" xmlns="http://www.w3.org/2000/svg">
<path d="M27.6333 52.1212L27.6683 30.3234C27.6688 30.0367 27.7831 29.7619 27.9862 29.5595C28.1893 29.3571 28.4644 29.2436 28.7512 29.2441L62.5943 29.2985C62.6333 29.2986 62.6722 29.2986 62.7111 29.2987C68.8203 29.9712 74.1267 33.6965 78.9328 40.6859C79.0569 40.8665 79.1231 41.0806 79.1228 41.2997C79.1224 41.5188 79.0555 41.7327 78.9308 41.9129C74.1034 48.8965 68.7839 52.5993 62.6693 53.2468C62.6313 53.2511 62.593 53.2532 62.5547 53.2531L28.7126 53.1986C28.4268 53.1982 28.1529 53.0846 27.9506 52.8827C27.7483 52.6808 27.6342 52.407 27.6333 52.1212V52.1212ZM29.8288 31.408L29.7972 51.0436L62.5009 51.0962C67.8262 50.5178 72.3609 47.3986 76.7221 41.3061C72.3784 35.2029 67.8537 32.0691 62.5314 31.4649L29.8288 31.408Z" fill="white"/>
<path d="M25.4437 24.7501C25.4438 24.6009 25.4748 24.4533 25.5348 24.3166C25.5947 24.18 25.6823 24.0572 25.792 23.9561L27.3814 22.497C28.9896 21.0001 30.9953 19.9985 33.1581 19.6122C35.3209 19.2259 37.5493 19.4712 39.5763 20.3188L39.7059 20.3741C44.0072 22.2311 47.4264 25.6756 49.2515 29.9906C49.3103 30.154 49.3289 30.3291 49.3056 30.5012C49.2824 30.6733 49.218 30.8372 49.118 30.9792C49.018 31.1211 48.8852 31.2369 48.731 31.3167C48.5768 31.3965 48.4056 31.4379 48.2319 31.4376L33.0222 31.4131C32.8387 31.4127 32.6584 31.3656 32.4982 31.2763C32.3379 31.1869 32.2031 31.0583 32.1063 30.9024C30.625 28.6619 28.5486 26.8785 26.1102 25.7522C25.9429 25.6821 25.7958 25.571 25.6827 25.4291C25.5696 25.2872 25.494 25.1192 25.4629 24.9404C25.4511 24.8776 25.4447 24.814 25.4437 24.7501V24.7501ZM39.1498 21.3127L38.7244 22.3055C37.0803 21.6215 35.2738 21.426 33.5213 21.7424C31.7689 22.0589 30.1448 22.8738 28.8437 24.0896L28.3966 24.4997C30.4581 25.6873 32.2368 27.3088 33.6095 29.2519L46.5046 29.2726C44.7538 26.2074 42.0679 23.7831 38.84 22.3543L39.1498 21.3127Z" fill="white"/>
<path d="M25.3908 57.6971C25.3909 57.6333 25.3964 57.5697 25.4073 57.5069C25.439 57.3282 25.5151 57.1603 25.6287 57.0188C25.7423 56.8773 25.8896 56.7667 26.0572 56.6971C28.4993 55.5787 30.5813 53.802 32.0698 51.5662C32.1671 51.4107 32.3024 51.2825 32.4629 51.1936C32.6234 51.1048 32.8039 51.0583 32.9874 51.0585L48.2003 51.083C48.374 51.0831 48.545 51.1252 48.699 51.2054C48.853 51.2857 48.9854 51.4019 49.0849 51.5442C49.1845 51.6864 49.2483 51.8506 49.271 52.0228C49.2937 52.1949 49.2746 52.37 49.2153 52.5332C47.3763 56.8423 43.946 60.2758 39.6388 62.1189L39.509 62.1739C37.4793 63.0149 35.2501 63.2531 33.0886 62.8598C30.927 62.4665 28.9246 61.4585 27.3212 59.9564L25.7365 58.4922C25.6271 58.3907 25.5399 58.2677 25.4804 58.1309C25.4209 57.994 25.3904 57.8463 25.3908 57.6971V57.6971ZM33.5709 53.2216C32.192 55.1603 30.4081 56.7761 28.3428 57.957L28.7886 58.3685C30.0855 59.5879 31.7064 60.4076 33.4571 60.7297C35.2079 61.0517 37.0143 60.8624 38.6603 60.1844L39.1993 61.1269L38.7685 60.1359C42.001 58.7176 44.6946 56.3019 46.4552 53.2423L33.5709 53.2216Z" fill="white"/>
<path d="M57.3471 41.275C57.3487 40.1488 57.6842 39.0484 58.3112 38.1128C58.9383 37.1773 59.8287 36.4488 60.8698 36.0193C61.9109 35.5898 63.056 35.4788 64.1603 35.7001C65.2645 35.9215 66.2784 36.4653 67.0735 37.2629C67.8687 38.0605 68.4094 39.0759 68.6275 40.1808C68.8455 41.2858 68.7309 42.4305 68.2983 43.4703C67.8657 44.5102 67.1345 45.3983 66.1971 46.0225C65.2596 46.6468 64.1582 46.979 63.032 46.9772C61.5225 46.973 60.0763 46.3704 59.0106 45.3014C57.9449 44.2325 57.3466 42.7845 57.3471 41.275V41.275ZM66.5719 41.2899C66.5733 40.5912 66.3674 39.9079 65.9803 39.3263C65.5932 38.7447 65.0424 38.2909 64.3974 38.0225C63.7524 37.754 63.0423 37.6828 62.3568 37.8179C61.6714 37.9531 61.0414 38.2885 60.5466 38.7817C60.0518 39.2749 59.7144 39.9038 59.5771 40.5888C59.4397 41.2738 59.5086 41.9841 59.775 42.6299C60.0414 43.2758 60.4934 43.8281 61.0738 44.2171C61.6541 44.606 62.3368 44.8141 63.0354 44.815C63.9715 44.8154 64.8695 44.4444 65.5325 43.7836C66.1955 43.1228 66.5693 42.2259 66.5719 41.2899V41.2899Z" fill="white"/>
<path d="M23.1659 50.9951L23.1974 31.4351C23.1978 31.1484 23.3122 30.8736 23.5152 30.6712C23.7183 30.4688 23.9935 30.3553 24.2802 30.3558L28.7494 30.363C29.0361 30.3635 29.3109 30.4778 29.5133 30.6809C29.7157 30.8839 29.8292 31.1591 29.8287 31.4458L29.7972 51.0058C29.7968 51.2925 29.6824 51.5673 29.4794 51.7697C29.2763 51.9721 29.0011 52.0856 28.7144 52.0851L24.2452 52.0779C23.9585 52.0775 23.6837 51.9631 23.4813 51.7601C23.2789 51.557 23.1654 51.2818 23.1659 50.9951ZM25.3578 32.5197L25.3298 49.9175L27.6368 49.9212L27.6648 32.5234L25.3578 32.5197Z" fill="white"/>
<path d="M3.4474 41.2608C3.48182 40.5446 3.7292 39.8549 4.15788 39.2801C4.58655 38.7054 5.17702 38.2716 5.85368 38.0344C7.98245 37.0825 9.97814 35.8574 11.7904 34.3899C14.9748 31.9701 17.4903 30.0585 24.6376 32.6105C24.8479 32.6854 25.03 32.8237 25.1586 33.0062C25.2872 33.1888 25.3562 33.4067 25.3559 33.6301L25.3315 48.7911C25.3313 49.0146 25.2617 49.2326 25.1325 49.4149C25.0033 49.5973 24.8207 49.7351 24.6099 49.8094C22.7334 50.5414 20.7473 50.953 18.7344 51.027C15.6836 51.0221 13.8588 49.6527 11.7456 48.0676C9.93879 46.6244 7.95492 45.4179 5.84223 44.4776C5.16857 44.2421 4.58066 43.8106 4.15394 43.2386C3.72723 42.6666 3.48119 41.9801 3.44739 41.2673L3.4474 41.2608ZM23.1925 34.3995C17.7262 32.5951 16.0474 33.8702 13.0979 36.113C11.147 37.6854 9.00096 38.9988 6.71318 40.0206C6.02297 40.319 5.61033 40.7853 5.60956 41.2664C5.60879 41.7421 6.01779 42.2011 6.69947 42.4963C8.96804 43.5048 11.0997 44.7967 13.0436 46.3411C15.0682 47.8578 16.406 48.8643 18.7379 48.8681C20.2509 48.8158 21.7467 48.529 23.1717 48.0179L23.1925 34.3995Z" fill="white"/>
<path d="M13.6734 41.2393C13.6927 40.771 13.85 40.3188 14.1255 39.9396C14.4009 39.5603 14.7823 39.2709 15.2217 39.1078C16.2691 38.6389 17.2513 38.0362 18.1435 37.3146C19.7509 36.0977 21.1385 35.0492 24.5952 36.1261C24.8147 36.1955 25.0063 36.3332 25.1422 36.5191C25.278 36.705 25.3509 36.9295 25.3503 37.1597L25.3372 45.2678C25.3369 45.4979 25.2631 45.7218 25.1267 45.9071C24.9903 46.0924 24.7984 46.2293 24.5788 46.298C23.75 46.5772 22.8838 46.7303 22.0094 46.7522C20.5612 46.6961 19.1812 46.1223 18.1201 45.1351C17.2307 44.426 16.2548 43.8327 15.216 43.3694C14.7779 43.2066 14.3977 42.918 14.1233 42.5398C13.8488 42.1615 13.6923 41.7106 13.6734 41.2436L13.6734 41.2393ZM23.1868 37.9768C21.3907 37.5609 20.7272 38.0636 19.4467 39.0335C18.4178 39.86 17.2867 40.5503 16.0812 41.0875C15.985 41.1212 15.8997 41.1805 15.8345 41.259C15.8518 41.2428 15.9187 41.3143 16.0732 41.3805C17.2707 41.9109 18.3958 42.5917 19.4213 43.4064C20.1148 44.1004 21.0354 44.5207 22.014 44.59C22.4073 44.584 22.7987 44.5335 23.1807 44.4395L23.1868 37.9768Z" fill="white"/>
<path d="M33.6682 41.237C33.6686 40.9502 33.783 40.6754 33.9861 40.473C34.1891 40.2706 34.4643 40.1572 34.751 40.1576L41.0883 40.1678C41.375 40.1683 41.6498 40.2826 41.8522 40.4857C42.0546 40.6888 42.1681 40.9639 42.1676 41.2506C42.1672 41.5374 42.0528 41.8122 41.8498 42.0146C41.6467 42.217 41.3715 42.3304 41.0848 42.33L34.7475 42.3198C34.4608 42.3193 34.186 42.205 33.9836 42.0019C33.7812 41.7988 33.6677 41.5237 33.6682 41.237Z" fill="white"/>
<path d="M33.7031 36.1557C33.7036 35.869 33.8179 35.5942 34.021 35.3918C34.2241 35.1894 34.4992 35.0759 34.786 35.0764L37.573 35.0808C37.8597 35.0813 38.1345 35.1956 38.3369 35.3987C38.5393 35.6018 38.6528 35.8769 38.6523 36.1637C38.6519 36.4504 38.5375 36.7252 38.3344 36.9276C38.1314 37.13 37.8562 37.2435 37.5695 37.243L34.7825 37.2385C34.4958 37.2381 34.221 37.1237 34.0185 36.9206C33.8161 36.7176 33.7027 36.4424 33.7031 36.1557Z" fill="white"/>
<path d="M33.6868 46.305C33.6872 46.0183 33.8016 45.7435 34.0046 45.5411C34.2077 45.3386 34.4829 45.2252 34.7696 45.2257L37.5566 45.2301C37.8433 45.2306 38.1181 45.3449 38.3205 45.548C38.523 45.7511 38.6364 46.0262 38.636 46.313C38.6355 46.5997 38.5212 46.8745 38.3181 47.0769C38.115 47.2793 37.8399 47.3928 37.5531 47.3923L34.7661 47.3878C34.4794 47.3874 34.2046 47.273 34.0022 47.0699C33.7998 46.8669 33.6863 46.5917 33.6868 46.305Z" fill="white"/>
</svg>
