
<svg xmlns="http://www.w3.org/2000/svg" xmlns:xlink="http://www.w3.org/1999/xlink">
<symbol width="22" height="24" viewBox="0 0 22 24" fill="none" id='group18'>
  <path d="M9.96662 23.518C10.3866 23.5077 10.7896 23.3404 11.1044 23.0455C11.4191 22.7506 11.6254 22.3473 11.6866 21.9067H8.17993C8.24291 22.3592 8.45882 22.7721 8.78747 23.0685C9.11613 23.3648 9.53517 23.5246 9.96662 23.518Z" fill="white"/>
  <path d="M9.96662 23.518C10.3866 23.5077 10.7896 23.3404 11.1044 23.0455C11.4191 22.7506 11.6254 22.3473 11.6866 21.9067H8.17993C8.24291 22.3592 8.45882 22.7721 8.78747 23.0685C9.11613 23.3648 9.53517 23.5246 9.96662 23.518Z" stroke="white"/>
  <path d="M19.7718 18.4149C19.1246 17.8254 18.558 17.1496 18.0872 16.4057C17.5733 15.3788 17.2653 14.2573 17.1812 13.1072V9.71956C17.1785 9.30807 17.1426 8.89752 17.0738 8.49206C16.5456 8.38417 16.0379 8.18964 15.5705 7.91603C15.7486 8.50224 15.8392 9.11259 15.8389 9.72642V13.114C15.9212 14.5171 16.2989 15.8855 16.9463 17.1257C17.4097 17.8759 17.9595 18.5666 18.5839 19.183H1.39597C2.02041 18.5666 2.5702 17.8759 3.03356 17.1257C3.68095 15.8855 4.05868 14.5171 4.14094 13.114V9.71956C4.13741 8.92593 4.28712 8.13938 4.5815 7.40495C4.87589 6.67052 5.30917 6.00264 5.85652 5.43954C6.40388 4.87645 7.05456 4.4292 7.77132 4.12341C8.48808 3.81762 9.25683 3.65929 10.0336 3.6575C11.1703 3.65843 12.2816 4.00192 13.2282 4.64498C13.1238 4.25341 13.0653 3.85058 13.0537 3.44492V3.01289C12.3529 2.66066 11.6001 2.42896 10.8255 2.32714V1.46309C10.8255 1.22029 10.7311 0.987432 10.5631 0.815746C10.3951 0.64406 10.1672 0.547607 9.92953 0.547607C9.6919 0.547607 9.46401 0.64406 9.29598 0.815746C9.12795 0.987432 9.03356 1.22029 9.03356 1.46309V2.36143C7.29914 2.61142 5.71179 3.49411 4.56458 4.84655C3.41736 6.19899 2.78774 7.92984 2.79195 9.71956V13.1072C2.70789 14.2573 2.39985 15.3788 1.88591 16.4057C1.42341 17.1479 0.865903 17.8236 0.228188 18.4149C0.156598 18.4792 0.0992224 18.5583 0.0598775 18.647C0.0205325 18.7356 0.000120669 18.8319 0 18.9292V19.8619C0 20.0437 0.0707093 20.2182 0.196573 20.3468C0.322436 20.4754 0.493143 20.5476 0.671141 20.5476H19.3289C19.5069 20.5476 19.6776 20.4754 19.8034 20.3468C19.9293 20.2182 20 20.0437 20 19.8619V18.9292C19.9999 18.8319 19.9795 18.7356 19.9401 18.647C19.9008 18.5583 19.8434 18.4792 19.7718 18.4149Z" fill="white"/>
  <sumbol width="8" height="8" viewBox="0 0 8 8" fill="none">
    <path d="M3.96661 7.06667C5.80755 7.06667 7.29993 5.48474 7.29993 3.53333C7.29993 1.58193 5.80755 0 3.96661 0C2.12568 0 0.633301 1.58193 0.633301 3.53333C0.633301 5.48474 2.12568 7.06667 3.96661 7.06667Z" fill="url(#paint0_linear)"/>
    <path d="M3.96661 7.06667C5.80755 7.06667 7.29993 5.48474 7.29993 3.53333C7.29993 1.58193 5.80755 0 3.96661 0C2.12568 0 0.633301 1.58193 0.633301 3.53333C0.633301 5.48474 2.12568 7.06667 3.96661 7.06667Z" stroke="white"/>
    <defs>
      <linearGradient id="paint0_linear" x1="3.96661" y1="0" x2="3.96661" y2="7.06667" gradientUnits="userSpaceOnUse">
        <stop stop-color="#326CFF"/>
        <stop offset="1" stop-color="#26FFF2"/>
      </linearGradient>
    </defs>
  </sumbol>
</symbol>

<symbol width="20" height="20" viewBox="0 0 20 20" fill="none" id='group'>
  <path d="M19 19L13 13L19 19ZM15 8C15 8.91925 14.8189 9.82951 14.4672 10.6788C14.1154 11.5281 13.5998 12.2997 12.9497 12.9497C12.2997 13.5998 11.5281 14.1154 10.6788 14.4672C9.82951 14.8189 8.91925 15 8 15C7.08075 15 6.1705 14.8189 5.32122 14.4672C4.47194 14.1154 3.70026 13.5998 3.05025 12.9497C2.40024 12.2997 1.88463 11.5281 1.53284 10.6788C1.18106 9.82951 1 8.91925 1 8C1 6.14348 1.7375 4.36301 3.05025 3.05025C4.36301 1.7375 6.14348 1 8 1C9.85652 1 11.637 1.7375 12.9497 3.05025C14.2625 4.36301 15 6.14348 15 8Z" stroke="white" stroke-width="2" stroke-linecap="round" stroke-linejoin="round"/>
</symbol>

<symbol width="19" height="20" viewBox="0 0 19 20" fill="none" id='vector'>
  <path d="M13.1847 12.6891C13.7648 12.3844 14.4287 12.2109 15.1357 12.2109H15.1381C15.21 12.2109 15.2436 12.1266 15.1909 12.0797C14.4555 11.4344 13.6156 10.9132 12.7054 10.5375C12.6958 10.5328 12.6862 10.5305 12.6766 10.5258C14.165 9.46875 15.1333 7.75078 15.1333 5.8125C15.1333 2.60156 12.4777 0 9.20126 0C5.92484 0 3.27158 2.60156 3.27158 5.8125C3.27158 7.75078 4.23989 9.46875 5.7307 10.5258C5.72111 10.5305 5.71152 10.5328 5.70194 10.5375C4.63057 10.9805 3.66945 11.6156 2.84256 12.4266C2.02044 13.229 1.36592 14.1803 0.915533 15.2273C0.472397 16.2526 0.233241 17.3512 0.210875 18.4641C0.210236 18.4891 0.214723 18.514 0.224072 18.5373C0.233421 18.5605 0.247443 18.5818 0.265312 18.5997C0.283182 18.6176 0.304536 18.6318 0.328117 18.6415C0.351699 18.6513 0.37703 18.6563 0.402619 18.6562H1.8383C1.94136 18.6562 2.02765 18.5742 2.03004 18.4734C2.07798 16.6641 2.81859 14.9695 4.12964 13.6852C5.48383 12.3563 7.28622 11.625 9.20366 11.625C10.5626 11.625 11.8665 11.993 12.9906 12.682C13.0195 12.6998 13.0526 12.7098 13.0867 12.711C13.1208 12.7122 13.1546 12.7047 13.1847 12.6891ZM9.20366 9.84375C8.10592 9.84375 7.0729 9.42422 6.29394 8.6625C5.91068 8.28869 5.60685 7.84443 5.39994 7.35529C5.19303 6.86616 5.08713 6.34183 5.08836 5.8125C5.08836 4.73672 5.51738 3.72422 6.29394 2.9625C7.07051 2.20078 8.10353 1.78125 9.20366 1.78125C10.3038 1.78125 11.3344 2.20078 12.1134 2.9625C12.4966 3.33631 12.8005 3.78057 13.0074 4.26971C13.2143 4.75884 13.3202 5.28317 13.319 5.8125C13.319 6.88828 12.8899 7.90078 12.1134 8.6625C11.3344 9.42422 10.3014 9.84375 9.20366 9.84375ZM18.0191 15.4219H16.0058V13.4531C16.0058 13.35 15.9195 13.2656 15.814 13.2656H14.4718C14.3664 13.2656 14.2801 13.35 14.2801 13.4531V15.4219H12.2668C12.1613 15.4219 12.075 15.5063 12.075 15.6094V16.9219C12.075 17.025 12.1613 17.1094 12.2668 17.1094H14.2801V19.0781C14.2801 19.1812 14.3664 19.2656 14.4718 19.2656H15.814C15.9195 19.2656 16.0058 19.1812 16.0058 19.0781V17.1094H18.0191C18.1245 17.1094 18.2108 17.025 18.2108 16.9219V15.6094C18.2108 15.5063 18.1245 15.4219 18.0191 15.4219Z" fill="white"/>
</symbol>
</svg>