<svg xmlns="http://www.w3.org/2000/svg" xmlns:xlink="http://www.w3.org/1999/xlink">
<symbol width="22" height="24" viewBox="0 0 22 24" fill="none" id='group18'>
  <path d="M9.96662 23.518C10.3866 23.5077 10.7896 23.3404 11.1044 23.0455C11.4191 22.7506 11.6254 22.3473 11.6866 21.9067H8.17993C8.24291 22.3592 8.45882 22.7721 8.78747 23.0685C9.11613 23.3648 9.53517 23.5246 9.96662 23.518Z" fill="white"/>
  <path d="M9.96662 23.518C10.3866 23.5077 10.7896 23.3404 11.1044 23.0455C11.4191 22.7506 11.6254 22.3473 11.6866 21.9067H8.17993C8.24291 22.3592 8.45882 22.7721 8.78747 23.0685C9.11613 23.3648 9.53517 23.5246 9.96662 23.518Z" stroke="white"/>
  <path d="M19.7718 18.4149C19.1246 17.8254 18.558 17.1496 18.0872 16.4057C17.5733 15.3788 17.2653 14.2573 17.1812 13.1072V9.71956C17.1785 9.30807 17.1426 8.89752 17.0738 8.49206C16.5456 8.38417 16.0379 8.18964 15.5705 7.91603C15.7486 8.50224 15.8392 9.11259 15.8389 9.72642V13.114C15.9212 14.5171 16.2989 15.8855 16.9463 17.1257C17.4097 17.8759 17.9595 18.5666 18.5839 19.183H1.39597C2.02041 18.5666 2.5702 17.8759 3.03356 17.1257C3.68095 15.8855 4.05868 14.5171 4.14094 13.114V9.71956C4.13741 8.92593 4.28712 8.13938 4.5815 7.40495C4.87589 6.67052 5.30917 6.00264 5.85652 5.43954C6.40388 4.87645 7.05456 4.4292 7.77132 4.12341C8.48808 3.81762 9.25683 3.65929 10.0336 3.6575C11.1703 3.65843 12.2816 4.00192 13.2282 4.64498C13.1238 4.25341 13.0653 3.85058 13.0537 3.44492V3.01289C12.3529 2.66066 11.6001 2.42896 10.8255 2.32714V1.46309C10.8255 1.22029 10.7311 0.987432 10.5631 0.815746C10.3951 0.64406 10.1672 0.547607 9.92953 0.547607C9.6919 0.547607 9.46401 0.64406 9.29598 0.815746C9.12795 0.987432 9.03356 1.22029 9.03356 1.46309V2.36143C7.29914 2.61142 5.71179 3.49411 4.56458 4.84655C3.41736 6.19899 2.78774 7.92984 2.79195 9.71956V13.1072C2.70789 14.2573 2.39985 15.3788 1.88591 16.4057C1.42341 17.1479 0.865903 17.8236 0.228188 18.4149C0.156598 18.4792 0.0992224 18.5583 0.0598775 18.647C0.0205325 18.7356 0.000120669 18.8319 0 18.9292V19.8619C0 20.0437 0.0707093 20.2182 0.196573 20.3468C0.322436 20.4754 0.493143 20.5476 0.671141 20.5476H19.3289C19.5069 20.5476 19.6776 20.4754 19.8034 20.3468C19.9293 20.2182 20 20.0437 20 19.8619V18.9292C19.9999 18.8319 19.9795 18.7356 19.9401 18.647C19.9008 18.5583 19.8434 18.4792 19.7718 18.4149Z" fill="white"/>
  <sumbol width="8" height="8" viewBox="0 0 8 8" fill="none">
    <path d="M3.96661 7.06667C5.80755 7.06667 7.29993 5.48474 7.29993 3.53333C7.29993 1.58193 5.80755 0 3.96661 0C2.12568 0 0.633301 1.58193 0.633301 3.53333C0.633301 5.48474 2.12568 7.06667 3.96661 7.06667Z" fill="url(#paint0_linear)"/>
    <path d="M3.96661 7.06667C5.80755 7.06667 7.29993 5.48474 7.29993 3.53333C7.29993 1.58193 5.80755 0 3.96661 0C2.12568 0 0.633301 1.58193 0.633301 3.53333C0.633301 5.48474 2.12568 7.06667 3.96661 7.06667Z" stroke="white"/>
    <defs>
      <linearGradient id="paint0_linear" x1="3.96661" y1="0" x2="3.96661" y2="7.06667" gradientUnits="userSpaceOnUse">
        <stop stop-color="#326CFF"/>
        <stop offset="1" stop-color="#26FFF2"/>
      </linearGradient>
    </defs>
  </sumbol>
</symbol>

<symbol width="20" height="20" viewBox="0 0 20 20" fill="none" id='group'>
  <path d="M19 19L13 13L19 19ZM15 8C15 8.91925 14.8189 9.82951 14.4672 10.6788C14.1154 11.5281 13.5998 12.2997 12.9497 12.9497C12.2997 13.5998 11.5281 14.1154 10.6788 14.4672C9.82951 14.8189 8.91925 15 8 15C7.08075 15 6.1705 14.8189 5.32122 14.4672C4.47194 14.1154 3.70026 13.5998 3.05025 12.9497C2.40024 12.2997 1.88463 11.5281 1.53284 10.6788C1.18106 9.82951 1 8.91925 1 8C1 6.14348 1.7375 4.36301 3.05025 3.05025C4.36301 1.7375 6.14348 1 8 1C9.85652 1 11.637 1.7375 12.9497 3.05025C14.2625 4.36301 15 6.14348 15 8Z" stroke="white" stroke-width="2" stroke-linecap="round" stroke-linejoin="round"/>
</symbol>

<symbol width="19" height="20" viewBox="0 0 19 20" fill="none" id='vector'>
  <path d="M13.1847 12.6891C13.7648 12.3844 14.4287 12.2109 15.1357 12.2109H15.1381C15.21 12.2109 15.2436 12.1266 15.1909 12.0797C14.4555 11.4344 13.6156 10.9132 12.7054 10.5375C12.6958 10.5328 12.6862 10.5305 12.6766 10.5258C14.165 9.46875 15.1333 7.75078 15.1333 5.8125C15.1333 2.60156 12.4777 0 9.20126 0C5.92484 0 3.27158 2.60156 3.27158 5.8125C3.27158 7.75078 4.23989 9.46875 5.7307 10.5258C5.72111 10.5305 5.71152 10.5328 5.70194 10.5375C4.63057 10.9805 3.66945 11.6156 2.84256 12.4266C2.02044 13.229 1.36592 14.1803 0.915533 15.2273C0.472397 16.2526 0.233241 17.3512 0.210875 18.4641C0.210236 18.4891 0.214723 18.514 0.224072 18.5373C0.233421 18.5605 0.247443 18.5818 0.265312 18.5997C0.283182 18.6176 0.304536 18.6318 0.328117 18.6415C0.351699 18.6513 0.37703 18.6563 0.402619 18.6562H1.8383C1.94136 18.6562 2.02765 18.5742 2.03004 18.4734C2.07798 16.6641 2.81859 14.9695 4.12964 13.6852C5.48383 12.3563 7.28622 11.625 9.20366 11.625C10.5626 11.625 11.8665 11.993 12.9906 12.682C13.0195 12.6998 13.0526 12.7098 13.0867 12.711C13.1208 12.7122 13.1546 12.7047 13.1847 12.6891ZM9.20366 9.84375C8.10592 9.84375 7.0729 9.42422 6.29394 8.6625C5.91068 8.28869 5.60685 7.84443 5.39994 7.35529C5.19303 6.86616 5.08713 6.34183 5.08836 5.8125C5.08836 4.73672 5.51738 3.72422 6.29394 2.9625C7.07051 2.20078 8.10353 1.78125 9.20366 1.78125C10.3038 1.78125 11.3344 2.20078 12.1134 2.9625C12.4966 3.33631 12.8005 3.78057 13.0074 4.26971C13.2143 4.75884 13.3202 5.28317 13.319 5.8125C13.319 6.88828 12.8899 7.90078 12.1134 8.6625C11.3344 9.42422 10.3014 9.84375 9.20366 9.84375ZM18.0191 15.4219H16.0058V13.4531C16.0058 13.35 15.9195 13.2656 15.814 13.2656H14.4718C14.3664 13.2656 14.2801 13.35 14.2801 13.4531V15.4219H12.2668C12.1613 15.4219 12.075 15.5063 12.075 15.6094V16.9219C12.075 17.025 12.1613 17.1094 12.2668 17.1094H14.2801V19.0781C14.2801 19.1812 14.3664 19.2656 14.4718 19.2656H15.814C15.9195 19.2656 16.0058 19.1812 16.0058 19.0781V17.1094H18.0191C18.1245 17.1094 18.2108 17.025 18.2108 16.9219V15.6094C18.2108 15.5063 18.1245 15.4219 18.0191 15.4219Z" fill="white"/>
</symbol>

 <symbol width="20" height="20" viewBox="0 0 20 20" id="icon-fullscreen">
    <path d="M0 0V3V6H3V3H6V0H3H0Z" fill="currentColor" />
    <path d="M3 14H0V17V20H3H6V17H3V14Z" fill="currentColor" />
    <path d="M17 0H14V3H17V6H20V3V0H17Z" fill="currentColor" />
    <path d="M17 17H14V20H17H20V17V14H17V17Z" fill="currentColor" />
  </symbol>

   <symbol width="32" height="20" viewBox="0 0 32 20" id="icon-subtitles">
    <path d="M29 0H3C1.3 0 0 1.3 0 3V17C0 18.7 1.3 20 3 20H29C30.7 20 32 18.7 32 17V3C32 1.3 30.7 0 29 0ZM14.4 15.9C13.9 16 13.3 16 12.7 16C12 16 11.3 15.9 10.7 15.7C10.1 15.5 9.5 15.1 9.1 14.7C8.7 14.3 8.3 13.6 8 12.8C7.7 12 7.6 11.1 7.6 10C7.6 8.9 7.8 7.9 8.1 7.1C8.4 6.3 8.8 5.7 9.3 5.2C9.8 4.7 10.4 4.4 11 4.2C11.5 4.1 12.2 4 12.8 4C13.5 4 14 4 14.5 4.1C15 4.2 15.3 4.3 15.6 4.4L15.2 6.3C14.9 6.2 14.6 6.1 14.3 6C13.9 6 13.5 6 13 6C12.1 6 11.4 6.3 10.8 7C10.2 7.7 10 8.7 10 10C10 10.6 10.1 11.1 10.2 11.6C10.3 12.1 10.5 12.5 10.8 12.9C11.1 13.2 11.4 13.5 11.8 13.7C12.2 13.9 12.7 14 13.2 14C13.7 14 14.1 14 14.5 13.9C14.8 13.8 15.1 13.7 15.4 13.5L15.9 15.3C15.4 15.6 14.9 15.7 14.4 15.9ZM23.1 15.9C22.6 16 22 16 21.4 16C20.7 16 20 15.9 19.4 15.7C18.8 15.5 18.2 15.1 17.8 14.7C17.3 14.2 16.9 13.6 16.7 12.8C16.4 12 16.3 11.1 16.3 10C16.3 8.9 16.5 7.9 16.8 7.1C17.1 6.3 17.5 5.7 18 5.2C18.5 4.7 19.1 4.4 19.7 4.2C20.2 4.1 20.9 4 21.5 4C22.2 4 22.7 4 23.2 4.1C23.7 4.2 24 4.3 24.3 4.4L23.9 6.3C23.6 6.2 23.3 6.1 23 6C22.6 6 22.2 6 21.7 6C20.8 6 20.1 6.3 19.5 7C18.9 7.7 18.7 8.7 18.7 10C18.7 10.6 18.8 11.1 18.9 11.6C19 12.1 19.2 12.5 19.5 12.9C19.8 13.2 20.1 13.5 20.5 13.7C20.9 13.9 21.4 14 21.9 14C22.4 14 22.8 14 23.2 13.9C23.5 13.8 23.8 13.7 24.1 13.5L24.6 15.3C24.1 15.6 23.6 15.7 23.1 15.9Z"
      fill="currentColor"/>
  </symbol>

    <symbol width="16" height="20" viewBox="0 0 16 20" id="icon-replay">
    <path d="M8 4V0L3 5L8 10V6C11.3 6 14 8.7 14 12C14 15.3 11.3 18 8 18C4.7 18 2 15.3 2 12H0C0 16.4 3.6 20 8 20C12.4 20 16 16.4 16 12C16 7.6 12.4 4 8 4Z"
      fill="currentColor"/>
  </symbol>

    <symbol  viewBox="0 0 24 24" width="24px" height="24px" id="icon-play">
    <path d="M 12 4 C 12 4 5.7455469 3.9999687 4.1855469 4.4179688 C 3.3245469 4.6479688 2.6479687 5.3255469 2.4179688 6.1855469 C 1.9999687 7.7455469 2 12 2 12 C 2 12 1.9999687 16.254453 2.4179688 17.814453 C 2.6479687 18.675453 3.3255469 19.352031 4.1855469 19.582031 C 5.7455469 20.000031 12 20 12 20 C 12 20 18.254453 20.000031 19.814453 19.582031 C 20.674453 19.352031 21.352031 18.674453 21.582031 17.814453 C 22.000031 16.254453 22 12 22 12 C 22 12 22.000031 7.7455469 21.582031 6.1855469 C 21.352031 5.3255469 20.674453 4.6479688 19.814453 4.4179688 C 18.254453 3.9999687 12 4 12 4 z M 12 6 C 14.882 6 18.490875 6.1336094 19.296875 6.3496094 C 19.465875 6.3946094 19.604391 6.533125 19.650391 6.703125 C 19.891391 7.601125 20 10.342 20 12 C 20 13.658 19.891391 16.397875 19.650391 17.296875 C 19.605391 17.465875 19.466875 17.604391 19.296875 17.650391 C 18.491875 17.866391 14.882 18 12 18 C 9.119 18 5.510125 17.866391 4.703125 17.650391 C 4.534125 17.605391 4.3956094 17.466875 4.3496094 17.296875 C 4.1086094 16.398875 4 13.658 4 12 C 4 10.342 4.1086094 7.6011719 4.3496094 6.7011719 C 4.3946094 6.5331719 4.533125 6.3946094 4.703125 6.3496094 C 5.508125 6.1336094 9.118 6 12 6 z M 10 8.5351562 L 10 15.464844 L 16 12 L 10 8.5351562 z"
    fill="currentColor"/>
    </symbol>

    <symbol width="389" height="13" viewBox="0 0 389 13" id="icon-volume">
    <rect opacity="0.2" y="5" width="389" height="3" fill="currentColor" />
    <path fill-rule="evenodd" clip-rule="evenodd" d="M117.494 1.94689C119.998 1.94689 122.027 3.97654 122.027 6.48016C122.027 8.98395 119.998 11.0136 117.494 11.0136C114.99 11.0136 112.961 8.98395 112.961 6.48016C112.961 3.97654 114.99 1.94689 117.494 1.94689Z"
      fill="currentColor"/>
  </symbol>
</svg>