<svg width="81" height="81" fill="none" xmlns="http://www.w3.org/2000/svg"><path d="M27.633 52.121l.035-21.798a1.081 1.081 0 011.083-1.079l33.843.055h.117c6.11.672 11.416 4.398 16.222 11.387a1.081 1.081 0 01-.002 1.227c-4.828 6.984-10.147 10.686-16.262 11.334a.997.997 0 01-.114.006L28.713 53.2a1.08 1.08 0 01-1.08-1.078zm2.196-20.713l-.032 19.636 32.704.052c5.325-.578 9.86-3.697 14.221-9.79-4.344-6.103-8.868-9.237-14.19-9.841l-32.703-.057z" fill="#fff"/><path d="M25.444 24.75a1.08 1.08 0 01.348-.794l1.59-1.459a11.428 11.428 0 0112.194-2.178l.13.055a18.194 18.194 0 019.545 9.617 1.08 1.08 0 01-1.02 1.447l-15.209-.025a1.081 1.081 0 01-.916-.51 14.454 14.454 0 00-5.996-5.15 1.08 1.08 0 01-.647-.813 1.125 1.125 0 01-.02-.19zm13.706-3.437l-.426.992a9.262 9.262 0 00-9.88 1.785l-.447.41a16.415 16.415 0 015.212 4.752l12.896.02a16.534 16.534 0 00-7.665-6.918l.31-1.041zM25.39 57.697a1.081 1.081 0 01.666-1 14.452 14.452 0 006.014-5.13 1.082 1.082 0 01.917-.508l15.213.024a1.081 1.081 0 011.015 1.45 18.195 18.195 0 01-9.576 9.586l-.13.055a11.428 11.428 0 01-12.188-2.218l-1.585-1.464a1.081 1.081 0 01-.345-.795zm8.18-4.475a16.413 16.413 0 01-5.227 4.735l.446.411a9.262 9.262 0 009.871 1.816l.54.943-.431-.991a16.532 16.532 0 007.686-6.894l-12.884-.02zm23.777-11.947a5.695 5.695 0 115.685 5.702 5.7 5.7 0 01-5.685-5.702zm9.225.015a3.531 3.531 0 10-7.062-.014 3.531 3.531 0 007.062.014zm-43.406 9.705l.031-19.56a1.081 1.081 0 011.083-1.08l4.47.008a1.081 1.081 0 011.079 1.083l-.032 19.56a1.081 1.081 0 01-1.083 1.08l-4.469-.008a1.081 1.081 0 01-1.08-1.083zm2.192-18.475l-.028 17.397 2.307.004.028-17.398-2.307-.003z" fill="#fff"/><path d="M3.447 41.26a3.602 3.602 0 012.407-3.226 26.85 26.85 0 005.936-3.644c3.185-2.42 5.7-4.332 12.848-1.78a1.081 1.081 0 01.718 1.02l-.025 15.161a1.08 1.08 0 01-.721 1.018 17.985 17.985 0 01-5.876 1.218c-3.05-.005-4.875-1.374-6.988-2.96a27.144 27.144 0 00-5.904-3.59 3.58 3.58 0 01-2.395-3.21v-.006zm19.745-6.86c-5.466-1.805-7.145-.53-10.094 1.713a29.057 29.057 0 01-6.385 3.908c-.69.298-1.103.764-1.103 1.245-.001.476.408.935 1.09 1.23 2.268 1.009 4.4 2.3 6.344 3.845 2.024 1.517 3.362 2.523 5.694 2.527a14.63 14.63 0 004.434-.85l.02-13.618z" fill="#fff"/><path d="M13.673 41.24a2.378 2.378 0 011.549-2.132 13.266 13.266 0 002.921-1.793c1.608-1.217 2.995-2.266 6.452-1.189a1.081 1.081 0 01.755 1.034l-.013 8.108a1.08 1.08 0 01-.758 1.03 8.734 8.734 0 01-2.57.454 6.054 6.054 0 01-3.889-1.617 13.44 13.44 0 00-2.904-1.766 2.37 2.37 0 01-1.543-2.125v-.005zm9.514-3.263c-1.796-.416-2.46.087-3.74 1.056a15.352 15.352 0 01-3.366 2.054.563.563 0 00-.246.172c.017-.016.084.055.238.121a15.425 15.425 0 013.348 2.026 4.072 4.072 0 002.593 1.184 5.216 5.216 0 001.167-.15l.006-6.463zm10.481 3.26a1.08 1.08 0 011.083-1.08l6.337.01a1.081 1.081 0 01-.003 2.163l-6.337-.01a1.081 1.081 0 01-1.08-1.083zm.035-5.081a1.081 1.081 0 011.083-1.08l2.787.005a1.081 1.081 0 01-.004 2.162l-2.787-.005a1.081 1.081 0 01-1.079-1.082zm-.016 10.149a1.081 1.081 0 011.083-1.08l2.787.005a1.081 1.081 0 01-.004 2.162l-2.787-.004a1.08 1.08 0 01-1.08-1.083z" fill="#fff"/></svg>